# xmcd CD database file
#
# Track frame offsets:
#	150
#	25467
#	47805
#
# Disc length: 970 seconds
#
# Revision: 0
# Processed by: cddbd v1.5.1PL2 Copyright (c) Steve Scherf et al.
# Submitted via: CDex 1.51
#
DISCID=2103c803
DTITLE=カノン - こころ
DYEAR=2006
DGENRE=Pop
TTITLE0=こころ
TTITLE1=キセキ Song of Love (Piano Version)
TTITLE2=こころ [Instrumental]
EXTD=YEAR: 2006/04/19
EXTT0=
EXTT1=
EXTT2=
PLAYORDER=
